<?xml version="1.0" encoding="utf-8"?>
<!-- Generator: Adobe Illustrator 16.0.0, SVG Export Plug-In . SVG Version: 6.00 Build 0)  -->
<!DOCTYPE svg PUBLIC "-//W3C//DTD SVG 1.1//EN" "http://www.w3.org/Graphics/SVG/1.1/DTD/svg11.dtd">
<svg version="1.1" xmlns="http://www.w3.org/2000/svg" xmlns:xlink="http://www.w3.org/1999/xlink" x="0px" y="0px" width="1500px"
	 height="1500px" viewBox="0 0 1500 1500" enable-background="new 0 0 1500 1500" xml:space="preserve">
<g id="Layer_1" display="none">
	<text transform="matrix(1 0 0 1 241.8481 815.5117)" display="inline"><tspan x="0" y="0" font-family="'Intro'" font-size="139.5">CONNEC </tspan><tspan x="671.967" y="0" fill="#6DBE45" font-family="'Intro'" font-size="139.5">360</tspan></text>
</g>
<g id="Layer_2" display="none">
	<text transform="matrix(1 0 0 1 217.3872 543.7939)" display="inline"><tspan x="0" y="0" fill="#FFFFFF" font-family="'Intro'" font-size="139.5">CONNEC</tspan><tspan x="633.606" y="0" font-family="'Intro'" font-size="139.5"> </tspan><tspan x="671.967" y="0" fill="#6DBE45" font-family="'Intro'" font-size="139.5">360</tspan></text>
</g>
<g id="Layer_3" display="none">
	<text transform="matrix(1 0 0 1 255.3872 791.7939)" display="inline" font-family="'Intro'" font-size="139.5">CONNEC 360</text>
</g>
<g id="Layer_4" display="none">
	<text transform="matrix(1 0 0 1 255.3872 791.7939)" display="inline" fill="#FFFFFF" font-family="'Intro'" font-size="139.5">CONNEC 360</text>
</g>
<g id="Layer_5" display="none">
	<g display="inline">
		<text transform="matrix(1 0 0 1 263.5151 607.8965)" fill="#6DBE45" font-family="'Intro'" font-size="139.5">CONNEC 360</text>
	</g>
</g>
<g id="Layer_6" display="none">
</g>
<g id="Layer_7" display="none">
	<text transform="matrix(1 0 0 1 149.335 705.5361)" display="inline" font-family="'Gemsbuck01-Black'" font-size="183.9592">CONNEC</text>
	
		<text transform="matrix(1 0 0 1 139.7432 1065.4619)" display="inline" fill="#8DC63F" font-family="'Arial-Black'" font-size="446.6516">360</text>
</g>
<g id="Layer_9" display="none">
	<path display="inline" fill="#8DC63F" d="M1344.791,1163.718c0,97.925-79.385,177.308-177.308,177.308H340.047
		c-97.924,0-177.308-79.383-177.308-177.308V336.282c0-97.924,79.383-177.308,177.308-177.308h827.437
		c97.923,0,177.308,79.383,177.308,177.308V1163.718z"/>
</g>
<g id="Layer_8" display="none">
	<g display="inline">
		<path d="M374.09,477.693c20.044,0,36.311,16.267,36.311,36.31v14.952h-40.581v-6.408c0-4.715-3.828-8.543-8.544-8.543h-55.533
			c-4.715,0-8.543,3.828-8.543,8.543v49.126c0,4.716,3.828,8.543,8.543,8.543h55.533c4.716,0,8.544-3.827,8.544-8.543v-6.408H410.4
			v14.951c0,20.043-16.266,36.31-36.311,36.31h-81.162c-20.043,0-36.311-16.267-36.311-36.31v-66.212
			c0-20.043,16.268-36.31,36.311-36.31H374.09z"/>
		<path d="M543.891,477.693c20.043,0,36.31,16.267,36.31,36.31v66.212c0,20.043-16.267,36.31-36.31,36.31h-81.163
			c-20.043,0-36.311-16.267-36.311-36.31v-66.212c0-20.043,16.268-36.31,36.311-36.31H543.891z M467,522.546v49.126
			c0,4.716,3.828,8.543,8.543,8.543h55.533c4.716,0,8.543-3.827,8.543-8.543v-49.126c0-4.715-3.828-8.543-8.543-8.543h-55.533
			C470.828,514.002,467,517.831,467,522.546z"/>
		<path d="M641.072,477.693l68.348,87.11v-87.11h40.582v138.832h-44.854l-68.348-87.11v87.11h-40.582V477.693H641.072z"/>
		<path d="M811.939,477.693l68.348,87.11v-87.11h40.583v138.832h-44.855l-68.348-87.11v87.11h-40.58V477.693H811.939z"/>
		<path d="M1073.58,477.693v34.601h-95.048v17.728h90.776v34.601h-90.776v17.3h95.048v34.601H937.953V477.693H1073.58z"/>
		<path d="M1207.072,477.693c20.044,0,36.311,16.267,36.311,36.31v14.952h-40.581v-6.408c0-4.715-3.827-8.543-8.544-8.543h-55.534
			c-4.714,0-8.542,3.828-8.542,8.543v49.126c0,4.716,3.828,8.543,8.542,8.543h55.534c4.717,0,8.544-3.827,8.544-8.543v-6.408h40.581
			v14.951c0,20.043-16.267,36.31-36.311,36.31h-81.163c-20.042,0-36.31-16.267-36.31-36.31v-66.212
			c0-20.043,16.268-36.31,36.31-36.31H1207.072z"/>
	</g>
	<g display="inline">
		<path fill="#FFFFFF" d="M353.97,759.217l-97.489-17.473c8.104-31.058,23.677-54.86,46.719-71.407
			c23.043-16.541,55.665-24.815,97.868-24.815c48.448,0,83.476,9.034,105.085,27.094c21.606,18.067,32.411,40.769,32.411,68.117
			c0,16.04-4.391,30.555-13.166,43.554c-8.78,13-22.031,24.395-39.755,34.183c14.346,3.544,25.321,7.683,32.917,12.409
			c12.321,7.594,21.904,17.597,28.741,30.006c6.836,12.406,10.255,27.219,10.255,44.438c0,21.609-5.658,42.329-16.966,62.164
			c-11.312,19.838-27.601,35.113-48.87,45.833c-21.271,10.717-49.211,16.078-83.816,16.078c-33.764,0-60.392-3.969-79.889-11.9
			c-19.498-7.934-35.537-19.536-48.111-34.816c-12.578-15.277-22.244-34.478-28.993-57.608l103.059-13.674
			c4.051,20.766,10.338,35.158,18.865,43.175c8.522,8.02,19.371,12.027,32.538,12.027c13.841,0,25.361-5.063,34.564-15.193
			c9.199-10.128,13.8-23.632,13.8-40.515c0-17.219-4.431-30.553-13.293-40.009c-8.862-9.451-20.89-14.18-36.083-14.18
			c-8.103,0-19.245,2.027-33.424,6.077l5.316-73.687c5.737,0.849,10.212,1.269,13.421,1.269c13.502,0,24.771-4.307,33.804-12.915
			c9.029-8.61,13.547-18.821,13.547-30.639c0-11.309-3.378-20.341-10.128-27.094c-6.753-6.751-16.039-10.13-27.854-10.13
			c-12.155,0-22.03,3.671-29.626,11.014C361.819,727.945,356.668,740.818,353.97,759.217z"/>
		<path fill="#FFFFFF" d="M898.383,735.415l-102.55,12.661c-2.704-14.348-7.218-24.475-13.548-30.387
			c-6.331-5.908-14.142-8.862-23.423-8.862c-16.713,0-29.713,8.442-38.995,25.321c-6.753,12.155-11.735,38.154-14.939,77.993
			c12.32-12.493,24.98-21.733,37.981-27.729c12.998-5.988,28.021-8.988,45.072-8.988c33.086,0,61.065,11.818,83.941,35.45
			c22.873,23.636,34.312,53.599,34.312,89.894c0,24.477-5.785,46.844-17.346,67.101c-11.564,20.257-27.601,35.577-48.111,45.959
			c-20.511,10.381-46.212,15.572-77.104,15.572c-37.139,0-66.936-6.329-89.385-18.99c-22.454-12.663-40.389-32.874-53.809-60.646
			c-13.42-27.766-20.13-64.526-20.13-110.275c0-67.015,14.093-116.099,42.288-147.245c28.189-31.145,67.269-46.719,117.239-46.719
			c29.539,0,52.878,3.419,70.014,10.257c17.131,6.837,31.354,16.837,42.666,30.006C883.863,698.95,892.473,715.498,898.383,735.415z
			 M708.472,900.766c0,20.089,5.063,35.829,15.193,47.224c10.128,11.396,22.537,17.092,37.222,17.092
			c13.505,0,24.815-5.147,33.932-15.445c9.116-10.296,13.675-25.658,13.675-46.086c0-20.931-4.729-36.884-14.181-47.857
			c-9.456-10.973-21.187-16.461-35.196-16.461c-14.351,0-26.379,5.318-36.083,15.953
			C713.323,865.819,708.472,881.014,708.472,900.766z"/>
		<path fill="#FFFFFF" d="M945.735,835.941c0-70.562,12.701-119.938,38.109-148.132c25.404-28.189,64.103-42.288,116.101-42.288
			c24.98,0,45.49,3.083,61.53,9.243c16.036,6.164,29.119,14.18,39.248,24.056c10.128,9.875,18.104,20.257,23.93,31.146
			c5.824,10.887,10.509,23.591,14.053,38.108c6.92,27.686,10.383,56.554,10.383,86.601c0,67.354-11.396,116.649-34.185,147.878
			c-22.789,31.232-62.038,46.844-117.746,46.844c-31.232,0-56.466-4.98-75.71-14.94c-19.246-9.957-35.032-24.561-47.352-43.805
			c-8.95-13.674-15.914-32.368-20.892-56.089C948.225,890.849,945.735,864.641,945.735,835.941z M1048.035,836.194
			c0,47.269,4.179,79.554,12.535,96.855c8.354,17.305,20.466,25.954,36.335,25.954c10.466,0,19.537-3.672,27.221-11.015
			c7.679-7.345,13.334-18.948,16.966-34.818c3.628-15.864,5.444-40.598,5.444-74.191c0-49.29-4.178-82.421-12.534-99.388
			c-8.356-16.964-20.891-25.448-37.603-25.448c-17.052,0-29.373,8.654-36.969,25.954
			C1051.834,757.404,1048.035,789.436,1048.035,836.194z"/>
	</g>
</g>
<g id="Layer_10">
	<g>
		<path d="M419.5,467.385c20.045,0,36.311,16.267,36.311,36.31v14.952h-40.581v-6.408c0-4.715-3.828-8.543-8.544-8.543h-55.533
			c-4.715,0-8.543,3.828-8.543,8.543v49.126c0,4.716,3.828,8.543,8.543,8.543h55.533c4.716,0,8.544-3.827,8.544-8.543v-6.408h40.581
			v14.951c0,20.043-16.266,36.31-36.311,36.31h-81.162c-20.043,0-36.311-16.267-36.311-36.31v-66.212
			c0-20.043,16.268-36.31,36.311-36.31H419.5z"/>
		<path d="M589.301,467.385c20.044,0,36.311,16.267,36.311,36.31v66.212c0,20.043-16.267,36.31-36.311,36.31h-81.162
			c-20.043,0-36.311-16.267-36.311-36.31v-66.212c0-20.043,16.268-36.31,36.311-36.31H589.301z M512.41,512.238v49.126
			c0,4.716,3.828,8.543,8.543,8.543h55.533c4.716,0,8.543-3.827,8.543-8.543v-49.126c0-4.715-3.827-8.543-8.543-8.543h-55.533
			C516.238,503.694,512.41,507.522,512.41,512.238z"/>
		<path d="M686.482,467.385l68.348,87.11v-87.11h40.582v138.832h-44.854l-68.348-87.11v87.11h-40.582V467.385H686.482z"/>
		<path d="M857.35,467.385l68.348,87.11v-87.11h40.583v138.832h-44.855l-68.348-87.11v87.11h-40.58V467.385H857.35z"/>
		<path d="M1118.99,467.385v34.601h-95.048v17.728h90.776v34.601h-90.776v17.3h95.048v34.601H983.363V467.385H1118.99z"/>
		<path d="M1252.482,467.385c20.044,0,36.311,16.267,36.311,36.31v14.952h-40.581v-6.408c0-4.715-3.827-8.543-8.544-8.543h-55.534
			c-4.714,0-8.542,3.828-8.542,8.543v49.126c0,4.716,3.828,8.543,8.542,8.543h55.534c4.717,0,8.544-3.827,8.544-8.543v-6.408h40.581
			v14.951c0,20.043-16.267,36.31-36.311,36.31h-81.163c-20.042,0-36.31-16.267-36.31-36.31v-66.212
			c0-20.043,16.268-36.31,36.31-36.31H1252.482z"/>
	</g>
	<g>
		<path fill="#FFFFFF" d="M399.38,748.909l-97.489-17.473c8.104-31.059,23.678-54.86,46.719-71.407
			c23.043-16.541,55.665-24.815,97.868-24.815c48.448,0,83.476,9.034,105.085,27.094c21.607,18.067,32.411,40.77,32.411,68.117
			c0,16.04-4.392,30.554-13.166,43.554c-8.78,13-22.03,24.395-39.755,34.182c14.346,3.545,25.32,7.684,32.918,12.41
			c12.32,7.594,21.903,17.596,28.74,30.006c6.836,12.406,10.255,27.219,10.255,44.438c0,21.609-5.658,42.33-16.966,62.164
			c-11.312,19.838-27.602,35.113-48.869,45.834c-21.271,10.717-49.211,16.078-83.816,16.078c-33.764,0-60.392-3.969-79.889-11.9
			c-19.498-7.934-35.537-19.537-48.111-34.816c-12.578-15.277-22.244-34.479-28.993-57.609L399.38,901.09
			c4.052,20.766,10.338,35.158,18.864,43.176c8.522,8.02,19.371,12.027,32.538,12.027c13.841,0,25.36-5.064,34.564-15.193
			c9.198-10.129,13.8-23.633,13.8-40.516c0-17.219-4.432-30.553-13.293-40.008c-8.862-9.451-20.891-14.18-36.084-14.18
			c-8.102,0-19.244,2.027-33.424,6.076l5.316-73.686c5.736,0.848,10.213,1.268,13.422,1.268c13.502,0,24.771-4.307,33.804-12.914
			c9.028-8.611,13.547-18.822,13.547-30.639c0-11.309-3.378-20.341-10.128-27.094c-6.754-6.751-16.039-10.13-27.854-10.13
			c-12.155,0-22.03,3.671-29.626,11.014C407.229,717.637,402.078,730.51,399.38,748.909z"/>
		<path fill="#FFFFFF" d="M943.793,725.106l-102.55,12.661c-2.704-14.348-7.218-24.476-13.548-30.387
			c-6.331-5.907-14.142-8.862-23.423-8.862c-16.713,0-29.714,8.442-38.995,25.32c-6.754,12.155-11.735,38.154-14.939,77.994
			c12.32-12.494,24.98-21.734,37.981-27.73c12.998-5.988,28.021-8.988,45.072-8.988c33.086,0,61.065,11.818,83.941,35.451
			c22.873,23.635,34.312,53.598,34.312,89.893c0,24.477-5.785,46.844-17.346,67.102c-11.564,20.256-27.601,35.576-48.111,45.959
			c-20.511,10.381-46.212,15.572-77.104,15.572c-37.139,0-66.937-6.33-89.385-18.99c-22.454-12.664-40.39-32.875-53.81-60.646
			c-13.42-27.766-20.129-64.527-20.129-110.275c0-67.016,14.093-116.099,42.287-147.246c28.189-31.145,67.269-46.719,117.239-46.719
			c29.539,0,52.878,3.419,70.014,10.257c17.131,6.837,31.354,16.837,42.666,30.006C929.273,688.642,937.883,705.19,943.793,725.106z
			 M753.883,890.457c0,20.09,5.063,35.83,15.192,47.225c10.128,11.395,22.536,17.092,37.222,17.092
			c13.505,0,24.815-5.148,33.932-15.445s13.675-25.658,13.675-46.086c0-20.932-4.729-36.885-14.181-47.857
			c-9.456-10.973-21.187-16.461-35.196-16.461c-14.351,0-26.379,5.318-36.083,15.953
			C758.732,855.512,753.883,870.705,753.883,890.457z"/>
		<path fill="#FFFFFF" d="M991.146,825.633c0-70.561,12.701-119.937,38.109-148.132c25.404-28.189,64.103-42.287,116.101-42.287
			c24.98,0,45.49,3.083,61.53,9.243c16.036,6.164,29.119,14.18,39.248,24.056c10.128,9.875,18.104,20.258,23.93,31.146
			c5.824,10.887,10.509,23.591,14.053,38.108c6.92,27.686,10.383,56.553,10.383,86.6c0,67.355-11.396,116.65-34.185,147.879
			c-22.789,31.232-62.038,46.844-117.746,46.844c-31.232,0-56.466-4.98-75.71-14.941c-19.246-9.957-35.032-24.561-47.352-43.805
			c-8.95-13.674-15.914-32.367-20.892-56.088C993.635,880.541,991.146,854.332,991.146,825.633z M1093.445,825.887
			c0,47.268,4.179,79.553,12.535,96.855c8.354,17.305,20.466,25.953,36.335,25.953c10.466,0,19.537-3.672,27.221-11.014
			c7.679-7.346,13.334-18.949,16.966-34.818c3.628-15.865,5.444-40.598,5.444-74.191c0-49.291-4.178-82.421-12.534-99.388
			c-8.356-16.965-20.891-25.448-37.603-25.448c-17.052,0-29.373,8.653-36.969,25.954
			C1097.244,747.096,1093.445,779.127,1093.445,825.887z"/>
	</g>
</g>
</svg>
